<?xml version="1.0" encoding="utf-8"?>
<!-- Generator: Adobe Illustrator 24.0.1, SVG Export Plug-In . SVG Version: 6.00 Build 0)  -->
<svg version="1.1" id="Layer_1" xmlns="http://www.w3.org/2000/svg" xmlns:xlink="http://www.w3.org/1999/xlink" x="0px" y="0px"
	 viewBox="0 0 1024 768" style="enable-background:new 0 0 1024 768;" xml:space="preserve">
<style type="text/css">
	.st0{fill:url(#SVGID_1_);}
	.st1{fill:url(#SVGID_2_);}
	.st2{fill:url(#SVGID_3_);}
	.st3{fill:url(#SVGID_4_);}
	.st4{opacity:0.1;}
	.st5{fill:url(#SVGID_5_);}
	.st6{fill:url(#SVGID_6_);}
	.st7{fill:url(#SVGID_7_);}
	.st8{fill:url(#SVGID_8_);}
</style>
<g>
	<g>
		<linearGradient id="SVGID_1_" gradientUnits="userSpaceOnUse" x1="478.8275" y1="357.744" x2="506.4756" y2="384.8162">
			<stop  offset="0.1513" style="stop-color:#007EFF"/>
			<stop  offset="0.2315" style="stop-color:#008DE5"/>
			<stop  offset="0.3916" style="stop-color:#00A8B8"/>
			<stop  offset="0.5453" style="stop-color:#00BD94"/>
			<stop  offset="0.6885" style="stop-color:#00CC7A"/>
			<stop  offset="0.8176" style="stop-color:#00D56A"/>
			<stop  offset="0.9199" style="stop-color:#00D865"/>
		</linearGradient>
		<path class="st0" d="M495.11,367.25c-0.26-0.43-0.82-0.56-1.25-0.3l-7.55,4.6l1.8,1.03l6.7-4.08
			C495.23,368.23,495.37,367.67,495.11,367.25z"/>
	</g>
	<g>
		<linearGradient id="SVGID_2_" gradientUnits="userSpaceOnUse" x1="466.1026" y1="370.5335" x2="492.7237" y2="396.6">
			<stop  offset="0.1513" style="stop-color:#007EFF"/>
			<stop  offset="0.2315" style="stop-color:#008DE5"/>
			<stop  offset="0.3916" style="stop-color:#00A8B8"/>
			<stop  offset="0.5453" style="stop-color:#00BD94"/>
			<stop  offset="0.6885" style="stop-color:#00CC7A"/>
			<stop  offset="0.8176" style="stop-color:#00D56A"/>
			<stop  offset="0.9199" style="stop-color:#00D865"/>
		</linearGradient>
		<path class="st1" d="M474.39,391.36l-0.46-14.88l7.72-4.87l-2.94-1.63l-6.92,4.37c-0.56,0.34-0.89,0.96-0.87,1.61l0.49,13.92
			L474.39,391.36z"/>
	</g>
	<g>
		<linearGradient id="SVGID_3_" gradientUnits="userSpaceOnUse" x1="466.8869" y1="369.0325" x2="495.4594" y2="397.0097">
			<stop  offset="0.1513" style="stop-color:#007EFF"/>
			<stop  offset="0.2315" style="stop-color:#008DE5"/>
			<stop  offset="0.3916" style="stop-color:#00A8B8"/>
			<stop  offset="0.5453" style="stop-color:#00BD94"/>
			<stop  offset="0.6885" style="stop-color:#00CC7A"/>
			<stop  offset="0.8176" style="stop-color:#00D56A"/>
			<stop  offset="0.9199" style="stop-color:#00D865"/>
		</linearGradient>
		<path class="st2" d="M486.14,374.2l-1.81-1.02l-7.53,4.6c-0.28,0.17-0.45,0.48-0.43,0.81l0.36,13.42
			c0.02,0.49,0.42,0.88,0.91,0.88c0.01,0,0.02,0,0.03,0c0.5-0.02,0.89-0.44,0.88-0.94l-0.35-12.89L486.14,374.2z"/>
	</g>
	<g>
		<linearGradient id="SVGID_4_" gradientUnits="userSpaceOnUse" x1="477.6526" y1="359.1845" x2="504.7083" y2="385.6766">
			<stop  offset="0.1513" style="stop-color:#007EFF"/>
			<stop  offset="0.2315" style="stop-color:#008DE5"/>
			<stop  offset="0.3916" style="stop-color:#00A8B8"/>
			<stop  offset="0.5453" style="stop-color:#00BD94"/>
			<stop  offset="0.6885" style="stop-color:#00CC7A"/>
			<stop  offset="0.8176" style="stop-color:#00D56A"/>
			<stop  offset="0.9199" style="stop-color:#00D865"/>
		</linearGradient>
		<path class="st3" d="M489.66,365.42c-0.52-0.86-1.64-1.13-2.5-0.6l-5.78,3.6l3.52,1.97l4.15-2.48
			C489.91,367.4,490.18,366.28,489.66,365.42z"/>
	</g>
	<g class="st4">
		<g>
			<polygon points="476.63,388.88 478.5,389.96 478.55,390.74 476.7,389.83 			"/>
		</g>
		<g>
			<polygon points="471.26,385.58 474.27,387.55 474.33,388.39 471.34,386.92 			"/>
		</g>
		<g>
			<polygon points="476.54,384.31 478.4,385.39 478.41,386.32 476.56,385.41 			"/>
		</g>
		<g>
			<polygon points="471.09,380.99 474.85,383.43 474.86,384.32 471.15,381.89 			"/>
		</g>
	</g>
	<g>
		<g>
			<linearGradient id="SVGID_5_" gradientUnits="userSpaceOnUse" x1="465.8604" y1="390.5348" x2="497.1364" y2="390.5348">
				<stop  offset="0.1513" style="stop-color:#007EFF"/>
				<stop  offset="0.2315" style="stop-color:#008DE5"/>
				<stop  offset="0.3916" style="stop-color:#00A8B8"/>
				<stop  offset="0.5453" style="stop-color:#00BD94"/>
				<stop  offset="0.6885" style="stop-color:#00CC7A"/>
				<stop  offset="0.8176" style="stop-color:#00D56A"/>
				<stop  offset="0.9199" style="stop-color:#00D865"/>
			</linearGradient>
			<path class="st5" d="M484.14,397.17c-0.32,0-0.64-0.09-0.93-0.26l-16.46-9.84c-0.86-0.51-1.14-1.63-0.63-2.49
				c0.51-0.86,1.21-0.84,2.07-0.33l15.54,9.29l10.67-6.3c0.87-0.51,1.98-0.22,2.49,0.64c0.51,0.87,0.22,1.98-0.65,2.48l-11.18,6.55
				C484.77,397.09,484.46,397.17,484.14,397.17z"/>
		</g>
	</g>
	<g>
		<g>
			<linearGradient id="SVGID_6_" gradientUnits="userSpaceOnUse" x1="465.3383" y1="384.8582" x2="496.8006" y2="384.8582">
				<stop  offset="0.1513" style="stop-color:#007EFF"/>
				<stop  offset="0.2315" style="stop-color:#008DE5"/>
				<stop  offset="0.3916" style="stop-color:#00A8B8"/>
				<stop  offset="0.5453" style="stop-color:#00BD94"/>
				<stop  offset="0.6885" style="stop-color:#00CC7A"/>
				<stop  offset="0.8176" style="stop-color:#00D56A"/>
				<stop  offset="0.9199" style="stop-color:#00D865"/>
			</linearGradient>
			<path class="st6" d="M484.14,391.08c-0.16,0-0.32-0.04-0.46-0.13l-17.89-10.62c-0.43-0.26-0.57-0.81-0.32-1.24
				c0.26-0.43,0.81-0.57,1.24-0.32l17.43,10.35l11.29-6.54c0.43-0.25,0.99-0.1,1.24,0.33c0.25,0.43,0.1,0.99-0.33,1.24l-11.75,6.8
				C484.45,391.03,484.3,391.08,484.14,391.08z"/>
		</g>
	</g>
	<g class="st4">
		<g>
			<polygon points="490.02,385.7 491.08,385.1 491.08,387.22 490.03,387.82 			"/>
		</g>
		<g>
			<polygon points="490.02,389.79 491.08,389.19 491.05,393.42 490.01,394.03 			"/>
		</g>
		<g>
			<polygon points="493.89,383.53 494.95,382.93 494.95,385.05 493.91,385.65 			"/>
		</g>
		<g>
			<polygon points="493.92,387.56 494.98,386.96 494.95,391.25 493.91,391.85 			"/>
		</g>
	</g>
	<g>
		<linearGradient id="SVGID_7_" gradientUnits="userSpaceOnUse" x1="469.3942" y1="366.4719" x2="497.9666" y2="394.4491">
			<stop  offset="0.1513" style="stop-color:#007EFF"/>
			<stop  offset="0.2315" style="stop-color:#008DE5"/>
			<stop  offset="0.3916" style="stop-color:#00A8B8"/>
			<stop  offset="0.5453" style="stop-color:#00BD94"/>
			<stop  offset="0.6885" style="stop-color:#00CC7A"/>
			<stop  offset="0.8176" style="stop-color:#00D56A"/>
			<stop  offset="0.9199" style="stop-color:#00D865"/>
		</linearGradient>
		<path class="st7" d="M492.16,378.18c0-0.33-0.18-0.63-0.46-0.79l-12.99-7.41l-1.75,1.09l13.39,7.64l0.04,18.91
			c0,0.5,0.41,0.91,0.91,0.91c0,0,0,0,0,0c0.5,0,0.91-0.41,0.91-0.91L492.16,378.18z"/>
	</g>
	<g>
		<linearGradient id="SVGID_8_" gradientUnits="userSpaceOnUse" x1="473.3047" y1="362.8087" x2="501.7109" y2="390.623">
			<stop  offset="0.1513" style="stop-color:#007EFF"/>
			<stop  offset="0.2315" style="stop-color:#008DE5"/>
			<stop  offset="0.3916" style="stop-color:#00A8B8"/>
			<stop  offset="0.5453" style="stop-color:#00BD94"/>
			<stop  offset="0.6885" style="stop-color:#00CC7A"/>
			<stop  offset="0.8176" style="stop-color:#00D56A"/>
			<stop  offset="0.9199" style="stop-color:#00D865"/>
		</linearGradient>
		<path class="st8" d="M497.3,375.32c0-0.65-0.35-1.25-0.92-1.58L484,366.72l-2.97,1.89l13.17,7.47l0.14,17.97
			c0,1,0.18,1.74,1.18,1.74c0,0,0,0,0,0c1,0,1.81-0.82,1.81-1.82L497.3,375.32z"/>
	</g>
	<g class="st4">
		<polygon points="476.82,371.05 479.7,372.82 479.85,372.72 477.02,370.94 		"/>
	</g>
	<g class="st4">
		<polygon points="482.31,374.39 484.12,375.43 484.36,375.27 482.52,374.26 		"/>
	</g>
</g>
</svg>
